<svg width="24" height="24" viewBox="0 0 24 24" fill="none" xmlns="http://www.w3.org/2000/svg">
<g clip-path="url(#clip0_124_2478)">
<path d="M22.9771 8.50312L20.9085 6.43453C20.7416 6.26988 20.5191 6.17375 20.2848 6.16507C20.0505 6.15639 19.8215 6.23581 19.6429 6.38766C19.3671 6.62238 19.0132 6.74493 18.6514 6.73104C18.2895 6.71715 17.9461 6.56782 17.6891 6.31265C17.4341 6.05573 17.2848 5.71238 17.271 5.35063C17.2571 4.98888 17.3795 4.6351 17.6141 4.35937C17.766 4.18076 17.8454 3.95173 17.8367 3.71745C17.828 3.48317 17.7319 3.26064 17.5672 3.09375L15.4968 1.02281C15.3218 0.848174 15.0847 0.750092 14.8375 0.750092C14.5903 0.750092 14.3532 0.848174 14.1782 1.02281L10.8805 4.32C10.677 4.52436 10.5234 4.77302 10.4319 5.04656C10.4141 5.09916 10.3844 5.14694 10.3452 5.1862C10.3059 5.22547 10.2581 5.25516 10.2055 5.27297C9.93188 5.36445 9.68317 5.51817 9.47897 5.72203L1.02272 14.1783C0.848082 14.3533 0.75 14.5904 0.75 14.8376C0.75 15.0848 0.848082 15.3219 1.02272 15.4969L3.09366 17.5655C3.26055 17.7301 3.48308 17.8263 3.71736 17.8349C3.95164 17.8436 4.18067 17.7642 4.35928 17.6123C4.63438 17.3757 4.98874 17.2518 5.35135 17.2654C5.71396 17.279 6.05803 17.4292 6.31461 17.6858C6.5712 17.9423 6.72134 18.2864 6.73495 18.649C6.74857 19.0116 6.62465 19.366 6.38803 19.6411C6.23618 19.8197 6.15677 20.0487 6.16545 20.283C6.17412 20.5173 6.27026 20.7398 6.43491 20.9067L8.5035 22.9753C8.67847 23.15 8.91559 23.248 9.1628 23.248C9.41001 23.248 9.64712 23.15 9.82209 22.9753L18.2783 14.5191C18.4821 14.315 18.6359 14.0665 18.7274 13.793C18.7451 13.7402 18.7748 13.6923 18.8142 13.6529C18.8536 13.6135 18.9015 13.5838 18.9543 13.5661C19.2277 13.4746 19.4762 13.3211 19.6804 13.1175L22.9776 9.81984C23.1516 9.64489 23.2492 9.40814 23.2491 9.16139C23.249 8.91463 23.1512 8.67796 22.9771 8.50312ZM12.2723 7.11328C12.2026 7.18294 12.1199 7.2382 12.0289 7.2759C11.9379 7.3136 11.8404 7.33301 11.7419 7.33301C11.6434 7.33301 11.5458 7.3136 11.4548 7.2759C11.3638 7.2382 11.2811 7.18294 11.2115 7.11328L10.6719 6.57375C10.5347 6.43239 10.4586 6.24271 10.4601 6.0457C10.4616 5.84869 10.5405 5.66018 10.6799 5.5209C10.8192 5.38162 11.0078 5.30276 11.2048 5.30136C11.4018 5.29997 11.5914 5.37615 11.7327 5.51344L12.2723 6.0525C12.3419 6.12214 12.3972 6.20483 12.4349 6.29584C12.4726 6.38684 12.492 6.48438 12.492 6.58289C12.492 6.6814 12.4726 6.77894 12.4349 6.86994C12.3972 6.96095 12.3419 7.04363 12.2723 7.11328ZM14.3348 9.17578C14.1941 9.31633 14.0034 9.39528 13.8046 9.39528C13.6058 9.39528 13.4151 9.31633 13.2744 9.17578L12.7588 8.66015C12.6181 8.51949 12.5391 8.3287 12.5391 8.12976C12.5391 7.93083 12.6181 7.74004 12.7588 7.59937C12.8995 7.4587 13.0903 7.37968 13.2892 7.37968C13.4881 7.37968 13.6789 7.4587 13.8196 7.59937L14.3352 8.115C14.4051 8.18464 14.4606 8.26739 14.4985 8.35851C14.5363 8.44963 14.5558 8.54732 14.5559 8.646C14.5559 8.74467 14.5365 8.84238 14.4987 8.93353C14.4609 9.02468 14.4055 9.10748 14.3357 9.17719L14.3348 9.17578ZM16.3973 11.2383C16.3276 11.3079 16.2449 11.3632 16.1539 11.4009C16.0629 11.4386 15.9654 11.458 15.8669 11.458C15.7684 11.458 15.6708 11.4386 15.5798 11.4009C15.4888 11.3632 15.4061 11.3079 15.3365 11.2383L14.8208 10.7227C14.6836 10.5813 14.6075 10.3916 14.609 10.1946C14.6105 9.9976 14.6894 9.80908 14.8288 9.6698C14.9681 9.53052 15.1567 9.45166 15.3537 9.45027C15.5507 9.44887 15.7403 9.52505 15.8816 9.66234L16.3973 10.178C16.4673 10.2475 16.523 10.3302 16.5611 10.4213C16.5992 10.5124 16.6189 10.6101 16.6191 10.7088C16.6193 10.8075 16.6 10.9053 16.5624 10.9966C16.5247 11.0879 16.4694 11.1708 16.3996 11.2406L16.3973 11.2383ZM18.4799 13.3261C18.4103 13.3958 18.3276 13.451 18.2366 13.4887C18.1456 13.5264 18.048 13.5458 17.9495 13.5458C17.851 13.5458 17.7535 13.5264 17.6625 13.4887C17.5715 13.451 17.4888 13.3958 17.4191 13.3261L16.8829 12.787C16.8118 12.7176 16.7551 12.6347 16.7163 12.5432C16.6775 12.4517 16.6573 12.3534 16.6568 12.254C16.6563 12.1546 16.6756 12.0561 16.7136 11.9642C16.7515 11.8723 16.8073 11.7889 16.8778 11.7188C16.9482 11.6486 17.0319 11.5932 17.124 11.5558C17.216 11.5183 17.3146 11.4995 17.414 11.5004C17.5134 11.5014 17.6117 11.5221 17.703 11.5613C17.7943 11.6006 17.8769 11.6576 17.946 11.7291L18.4827 12.2677C18.5524 12.3373 18.6076 12.42 18.6452 12.5111C18.6829 12.6021 18.7023 12.6996 18.7022 12.7981C18.7022 12.8966 18.6827 12.9942 18.645 13.0852C18.6072 13.1762 18.5519 13.2588 18.4823 13.3284L18.4799 13.3261Z" fill="white"/>
</g>
<defs>
<clipPath id="clip0_124_2478">
<rect width="24" height="24" fill="white"/>
</clipPath>
</defs>
</svg>
